<?xml version="1.0" encoding="utf-8"?>
<!-- Generator: Adobe Illustrator 24.1.1, SVG Export Plug-In . SVG Version: 6.00 Build 0)  -->
<svg version="1.1" id="Capa_1" xmlns="http://www.w3.org/2000/svg" xmlns:xlink="http://www.w3.org/1999/xlink" x="0px" y="0px"
	 viewBox="0 0 512 512" style="enable-background:new 0 0 512 512;" xml:space="preserve">
<style type="text/css">
	.st0{fill:#2156A2;}
	.st1{fill:#F0EFEF;}
	.st2{fill:#D8132B;}
</style>
<g>
	<path class="st0" d="M411.5,52.6l-88.6,88.6V8.8C355.4,17.6,385.4,32.7,411.5,52.6z"/>
	<path class="st0" d="M437.2,75.1L322.9,189.5v-31.7L420.7,60C426.4,64.8,431.9,69.9,437.2,75.1z"/>
	<path class="st0" d="M503.2,189.1H370.8l88.6-88.6C479.3,126.6,494.4,156.6,503.2,189.1z"/>
	<path class="st0" d="M141.3,189.1H8.8c8.8-32.6,23.9-62.6,43.8-88.6L141.3,189.1z"/>
	<path class="st0" d="M189.4,189.1h-31.7L60,91.3c4.8-5.7,9.9-11.2,15.2-16.5L189.4,189.1z"/>
	<path class="st0" d="M189.2,8.8v132.4l-88.6-88.6C126.6,32.7,156.6,17.6,189.2,8.8z"/>
	<path class="st0" d="M411.5,459.4c-26.1,20-56.1,35-88.6,43.8V370.7L411.5,459.4z"/>
	<path class="st0" d="M452.1,420.5c-4.8,5.7-9.9,11.2-15.1,16.5L322.9,322.9l-0.1-0.1h31.7L452.1,420.5z"/>
	<path class="st0" d="M503.2,322.8c-8.8,32.6-23.8,62.6-43.8,88.6l-88.6-88.6H503.2z"/>
	<path class="st0" d="M141.3,322.8l-88.6,88.6c-19.9-26.1-35-56.1-43.8-88.6H141.3z"/>
	<path class="st0" d="M189.2,322.9v31.7l-97.7,97.6c-5.7-4.8-11.2-9.9-16.5-15.1L189.2,322.9z"/>
	<path class="st0" d="M189.2,370.7v132.4c-32.6-8.8-62.6-23.9-88.6-43.8L189.2,370.7z"/>
	<polygon class="st0" points="189.2,322.8 189.2,322.9 189.2,322.8 	"/>
	
		<rect x="256" y="255.9" transform="matrix(0.7071 -0.7071 0.7071 0.7071 -106.0173 256.1072)" class="st0" width="0.2" height="0.2"/>
	<polygon class="st0" points="222.2,289.9 222.1,289.9 222.1,289.8 	"/>
	<polygon class="st0" points="222.5,289.9 222.3,290 222.2,289.9 	"/>
	<polygon class="st0" points="289.9,289.9 289.9,289.9 289.8,289.9 	"/>
	<polygon class="st0" points="290.2,289.9 289.9,289.9 289.9,289.6 	"/>
	<polygon class="st0" points="222.1,222.1 222.1,222.2 222.1,222.1 	"/>
	<polygon class="st0" points="222.4,222.1 222.1,222.1 222.1,221.8 	"/>
	<polygon class="st0" points="290.2,222.1 289.9,222.4 289.9,222.1 	"/>
	<path class="st1" d="M189.4,189.1h-31.7L60,91.3c4.8-5.7,9.9-11.2,15.2-16.5L189.4,189.1z"/>
	<path class="st1" d="M503.2,322.8H370.8l88.6,88.6c-2.3,3.1-4.8,6.1-7.3,9.1l-97.7-97.7h-31.7l0.1,0.1L437,437
		c-8,8-16.5,15.5-25.5,22.3l-88.6-88.6v132.4c-10.7,2.9-21.7,5.1-33,6.6V289.9h219.9C508.3,301.1,506.1,312.1,503.2,322.8z"/>
	
		<rect x="256" y="255.9" transform="matrix(0.7071 -0.7071 0.7071 0.7071 -106.0173 256.1072)" class="st1" width="0.2" height="0.2"/>
	<polygon class="st1" points="222.1,222.1 222.1,222.2 222.1,222.1 	"/>
	<polygon class="st1" points="222.4,222.1 222.1,222.1 222.1,221.8 	"/>
	<polygon class="st1" points="289.9,289.9 289.9,289.9 289.8,289.9 	"/>
	<polygon class="st1" points="290.2,289.9 289.9,289.9 289.9,289.6 	"/>
	<path class="st1" d="M452.1,420.5c-4.8,5.7-9.9,11.2-15.1,16.5L322.9,322.9l-0.1-0.1h31.7L452.1,420.5z"/>
	<path class="st1" d="M189.2,322.9v31.7l-97.7,97.6c-5.7-4.8-11.2-9.9-16.5-15.1L189.2,322.9z"/>
	<polygon class="st1" points="189.2,322.8 189.2,322.9 189.2,322.8 	"/>
	
		<rect x="256" y="255.9" transform="matrix(0.7071 -0.7071 0.7071 0.7071 -106.0173 256.1072)" class="st1" width="0.2" height="0.2"/>
	<polygon class="st1" points="222.2,289.9 222.1,289.9 222.1,289.8 	"/>
	<polygon class="st1" points="222.5,289.9 222.3,290 222.2,289.9 	"/>
	<polygon class="st1" points="290.2,222.1 289.9,222.4 289.9,222.1 	"/>
	<path class="st1" d="M437.2,75.1L322.9,189.5v-31.7L420.7,60C426.4,64.8,431.9,69.9,437.2,75.1z"/>
	<path class="st2" d="M189.4,189.1h-31.7L60,91.3c4.8-5.7,9.9-11.2,15.2-16.5L189.4,189.1z"/>
	<polygon class="st2" points="222.1,222.1 222.1,222.2 222.1,222.1 	"/>
	<polygon class="st2" points="222.4,222.1 222.1,222.1 222.1,221.8 	"/>
	
		<rect x="256" y="255.9" transform="matrix(0.7071 -0.7071 0.7071 0.7071 -106.0173 256.1072)" class="st2" width="0.2" height="0.2"/>
	<polygon class="st2" points="289.9,289.9 289.9,289.9 289.8,289.9 	"/>
	<polygon class="st2" points="290.2,289.9 289.9,289.9 289.9,289.6 	"/>
	<polygon class="st2" points="222.1,222.1 222.1,222.2 222.1,222.1 	"/>
	<polygon class="st2" points="222.4,222.1 222.1,222.1 222.1,221.8 	"/>
	
		<rect x="256" y="255.9" transform="matrix(0.7071 -0.7071 0.7071 0.7071 -106.0173 256.1072)" class="st2" width="0.2" height="0.2"/>
	<polygon class="st2" points="289.9,289.9 289.9,289.9 289.8,289.9 	"/>
	<polygon class="st2" points="290.2,289.9 289.9,289.9 289.9,289.6 	"/>
	<path class="st2" d="M452.1,420.5c-4.8,5.7-9.9,11.2-15.1,16.5L322.9,322.9l-0.1-0.1h31.7L452.1,420.5z"/>
	<polygon class="st2" points="222.5,289.9 222.3,290 222.2,289.9 	"/>
	
		<rect x="256" y="255.9" transform="matrix(0.7071 -0.7071 0.7071 0.7071 -106.0173 256.1072)" class="st2" width="0.2" height="0.2"/>
	<polygon class="st2" points="290.2,222.1 289.9,222.4 289.9,222.1 	"/>
	<path class="st2" d="M437.2,75.1L322.9,189.5v-31.7L420.7,60C426.4,64.8,431.9,69.9,437.2,75.1z"/>
	<path class="st2" d="M189.2,322.9v31.7l-97.7,97.6c-5.7-4.8-11.2-9.9-16.5-15.1L189.2,322.9z"/>
	<polygon class="st2" points="222.5,289.9 222.3,290 222.2,289.9 	"/>
	
		<rect x="256" y="255.9" transform="matrix(0.7071 -0.7071 0.7071 0.7071 -106.0173 256.1072)" class="st2" width="0.2" height="0.2"/>
	<polygon class="st2" points="290.2,222.1 289.9,222.4 289.9,222.1 289.9,222.1 	"/>
	<polygon class="st1" points="189.4,189.1 189.2,189.1 189.2,188.9 	"/>
	<polygon class="st1" points="189.2,322.8 189.2,322.9 189.2,322.8 	"/>
	
		<rect x="256" y="255.9" transform="matrix(0.7071 -0.7071 0.7071 0.7071 -106.0173 256.1072)" class="st1" width="0.2" height="0.2"/>
	<polygon class="st1" points="222.2,289.9 222.1,289.9 222.1,289.8 	"/>
	<polygon class="st1" points="222.5,289.9 222.3,290 222.2,289.9 	"/>
	<polygon class="st1" points="289.9,289.9 289.9,289.9 289.8,289.9 	"/>
	<polygon class="st1" points="290.2,289.9 289.9,289.9 289.9,289.6 	"/>
	<polygon class="st1" points="222.1,222.1 222.1,222.2 222.1,222.1 	"/>
	<polygon class="st1" points="222.4,222.1 222.1,222.1 222.1,221.8 	"/>
	<polygon class="st1" points="290.2,222.1 289.9,222.4 289.9,222.1 	"/>
	<polygon class="st1" points="322.9,322.8 322.9,322.9 322.8,322.8 	"/>
	<path class="st1" d="M509.8,222.1H289.9V2.2c11.2,1.5,22.2,3.7,33,6.6v132.4l88.6-88.6c3.1,2.4,6.2,4.8,9.2,7.4l-97.8,97.8v31.7
		L437.2,75.1c7.9,8,15.4,16.4,22.2,25.4l-88.6,88.6h132.4C506.1,199.9,508.3,210.9,509.8,222.1z"/>
	<polygon class="st1" points="323.2,189.1 322.9,189.5 322.9,189.1 	"/>
	<path class="st1" d="M222.1,2.2v219.9H2.2c1.5-11.2,3.7-22.2,6.6-33h132.4l-88.6-88.6c2.4-3.1,4.8-6.2,7.3-9.2l97.8,97.8h31.7
		L75.1,74.8c8-7.9,16.4-15.4,25.4-22.2l88.6,88.6V8.8C199.9,5.9,210.9,3.7,222.1,2.2z"/>
	<path class="st1" d="M222.1,289.9v219.9c-11.2-1.5-22.2-3.7-33-6.6V370.7l-88.6,88.6c-3.1-2.3-6.1-4.7-9-7.2l97.7-97.6v-31.7l0,0h0
		v0L75,437c-8-8-15.5-16.5-22.4-25.5l88.6-88.6H8.8c-2.9-10.7-5.1-21.7-6.6-33L222.1,289.9L222.1,289.9z"/>
	
		<rect x="256" y="255.9" transform="matrix(0.7071 -0.7071 0.7071 0.7071 -106.0173 256.1072)" class="st1" width="0.2" height="0.2"/>
	<polygon class="st1" points="222.2,289.9 222.1,289.9 222.1,289.8 	"/>
	<polygon class="st1" points="222.5,289.9 222.3,290 222.2,289.9 	"/>
	<polygon class="st1" points="289.9,289.9 289.9,289.9 289.8,289.9 	"/>
	<polygon class="st1" points="290.2,289.9 289.9,289.9 289.9,289.6 	"/>
	<polygon class="st1" points="222.1,222.1 222.1,222.2 222.1,222.1 	"/>
	<polygon class="st1" points="222.4,222.1 222.1,222.1 222.1,221.8 	"/>
	<polygon class="st1" points="290.2,222.1 289.9,222.4 289.9,222.1 	"/>
	
		<rect x="256" y="255.9" transform="matrix(0.7071 -0.7071 0.7071 0.7071 -106.0173 256.1072)" class="st2" width="0.2" height="0.2"/>
	<polygon class="st2" points="222.4,222.1 222.1,222.1 222.1,221.8 	"/>
	<polygon class="st2" points="222.2,289.9 222.1,289.9 222.1,289.8 	"/>
	<polygon class="st2" points="222.5,289.9 222.3,290 222.2,289.9 	"/>
	<polygon class="st2" points="289.9,289.9 289.9,289.9 289.8,289.9 	"/>
	<path class="st2" d="M509.8,222.1H290.2l-0.3,0.3V2.2C278.8,0.8,267.5,0,256,0c-11.5,0-22.8,0.8-33.9,2.2v219.6l0.3,0.3h-0.3v0.1
		l-0.1-0.1H2.2C0.8,233.2,0,244.5,0,256c0,11.5,0.8,22.8,2.2,33.9h219.9v0l0,0h0.3l-0.1,0.1l-0.1-0.1l0,0v219.9
		c11.1,1.5,22.4,2.2,33.9,2.2c11.5,0,22.8-0.8,33.9-2.2V289.9l-0.1-0.1h0.1v-0.3l0.3,0.3h219.6c1.5-11.1,2.2-22.4,2.2-33.9
		C512,244.5,511.2,233.2,509.8,222.1z M256.1,256.2L256,256l0.2-0.2l0.1,0.1L256.1,256.2z"/>
	<polygon class="st2" points="222.2,289.9 222.1,289.9 222.1,289.8 	"/>
	
		<rect x="256" y="255.9" transform="matrix(0.7071 -0.7071 0.7071 0.7071 -106.0173 256.1072)" class="st2" width="0.2" height="0.2"/>
	<polygon class="st2" points="290.2,289.9 289.9,289.9 289.9,289.6 	"/>
	<polygon class="st2" points="222.1,222.1 222.1,222.2 222.1,222.1 	"/>
	<polygon class="st2" points="290.2,222.1 289.9,222.4 289.9,222.1 	"/>
</g>
</svg>
