<?xml version="1.0" encoding="utf-8"?>
<!-- Generator: Adobe Illustrator 24.1.1, SVG Export Plug-In . SVG Version: 6.00 Build 0)  -->
<svg version="1.1" id="Capa_1" xmlns="http://www.w3.org/2000/svg" xmlns:xlink="http://www.w3.org/1999/xlink" x="0px" y="0px"
	 viewBox="0 0 512 512" style="enable-background:new 0 0 512 512;" xml:space="preserve">
<style type="text/css">
	.st0{fill:#D80E2A;}
	.st1{fill:#FFDA45;}
</style>
<path class="st0" d="M16.1,345.4h480C459.8,442.7,366,512,256,512S52.3,442.7,16.1,345.4z"/>
<path class="st0" d="M496.4,167.6H15.8c0.1-0.2,0.1-0.3,0.2-0.5V167C52.1,69.5,146,0,256,0S460,69.5,496.2,167v0.1
	C496.3,167.3,496.3,167.4,496.4,167.6z"/>
<path class="st1" d="M512,256.5c0,31.2-5.6,61.1-15.8,88.8v0.1H15.8v-0.1C5.6,317.6,0,287.7,0,256.5s5.6-61.2,15.8-88.9h480.3
	C506.4,195.2,512,225.2,512,256.5z"/>
</svg>
